<svg width="25" height="24" viewBox="0 0 25 24" fill="none" xmlns="http://www.w3.org/2000/svg">
    <path d="M12.6667 21.65C17.9962 21.65 22.3167 17.3295 22.3167 12C22.3167 6.67045 17.9962 2.35 12.6667 2.35C7.33713 2.35 3.01668 6.67045 3.01668 12C3.01668 17.3295 7.33713 21.65 12.6667 21.65Z" stroke="currentColor" stroke-width="1.7"/>
    <path d="M10.3307 8.576C10.4526 8.24605 10.6452 7.94677 10.8951 7.6992C11.1449 7.45162 11.446 7.26173 11.777 7.14288C12.1081 7.02402 12.4611 6.97908 12.8114 7.01119C13.1617 7.04331 13.5007 7.15171 13.8046 7.32879C14.1085 7.50587 14.37 7.74733 14.5707 8.03622C14.7714 8.32511 14.9064 8.65442 14.9662 9.00104C15.0261 9.34766 15.0093 9.70317 14.9171 10.0426C14.825 10.3821 14.6596 10.6973 14.4327 10.966L13.3577 12.07C13.0317 12.392 12.5927 12.83 12.5927 13.614V13.978" stroke="currentColor" stroke-width="1.7" stroke-linecap="round"/>
    <path d="M12.5937 17.768C13.0819 17.768 13.4777 17.3722 13.4777 16.884C13.4777 16.3958 13.0819 16 12.5937 16C12.1055 16 11.7097 16.3958 11.7097 16.884C11.7097 17.3722 12.1055 17.768 12.5937 17.768Z" fill="currentColor"/>
</svg>
