<svg width="25" height="24" fill="currentColor" viewBox="0 0 25 24" xmlns="http://www.w3.org/2000/svg">
    <path fill-rule="evenodd" clip-rule="evenodd" d="M10.8333 2.335L3.33333 7.51C2.70833 7.947 2.33333 8.626 2.33333 9.35V19.7C2.33333 20.965 3.45833 22 4.83333 22H19.8333C21.2083 22 22.3333 20.965 22.3333 19.7V9.35C22.3333 8.626 21.9583 7.947 21.3333 7.51L13.8333 2.335C13.3898 2.03707 12.8676 1.87796 12.3333 1.87796C11.799 1.87796 11.2768 2.03707 10.8333 2.335ZM7.64933 14.366C7.56642 14.2895 7.46913 14.2304 7.36312 14.1919C7.25711 14.1534 7.1445 14.1364 7.03186 14.1419C6.91921 14.1473 6.80878 14.1752 6.707 14.2237C6.60522 14.2723 6.51412 14.3407 6.43902 14.4248C6.36391 14.5089 6.3063 14.6072 6.26953 14.7138C6.23277 14.8204 6.21759 14.9333 6.22488 15.0458C6.23217 15.1583 6.26178 15.2683 6.31199 15.3693C6.3622 15.4703 6.432 15.5603 6.51733 15.634C8.11632 17.065 10.1875 17.8548 12.3333 17.852C14.5663 17.852 16.6053 17.012 18.1493 15.634C18.2347 15.5603 18.3045 15.4703 18.3547 15.3693C18.4049 15.2683 18.4345 15.1583 18.4418 15.0458C18.4491 14.9333 18.4339 14.8204 18.3971 14.7138C18.3604 14.6072 18.3027 14.5089 18.2276 14.4248C18.1525 14.3407 18.0614 14.2723 17.9597 14.2237C17.8579 14.1752 17.7474 14.1473 17.6348 14.1419C17.5222 14.1364 17.4095 14.1534 17.3035 14.1919C17.1975 14.2304 17.1002 14.2895 17.0173 14.366C15.7298 15.5187 14.0615 16.1548 12.3333 16.152C10.5333 16.152 8.89333 15.477 7.64933 14.366Z" fill="currentColor"/>
    <mask id="mask0_14_190" style="mask-type:alpha" maskUnits="userSpaceOnUse" x="2" y="1" width="21" height="21">
        <path fill-rule="evenodd" clip-rule="evenodd" d="M10.8333 2.335L3.33333 7.51C2.70833 7.947 2.33333 8.626 2.33333 9.35V19.7C2.33333 20.965 3.45833 22 4.83333 22H19.8333C21.2083 22 22.3333 20.965 22.3333 19.7V9.35C22.3333 8.626 21.9583 7.947 21.3333 7.51L13.8333 2.335C13.3898 2.03707 12.8676 1.87796 12.3333 1.87796C11.799 1.87796 11.2768 2.03707 10.8333 2.335ZM7.64933 14.366C7.56642 14.2895 7.46913 14.2304 7.36312 14.1919C7.25711 14.1534 7.1445 14.1364 7.03186 14.1419C6.91921 14.1473 6.80878 14.1752 6.707 14.2237C6.60522 14.2723 6.51412 14.3407 6.43902 14.4248C6.36391 14.5089 6.3063 14.6072 6.26953 14.7138C6.23277 14.8204 6.21759 14.9333 6.22488 15.0458C6.23217 15.1583 6.26178 15.2683 6.31199 15.3693C6.3622 15.4703 6.432 15.5603 6.51733 15.634C8.11632 17.065 10.1875 17.8548 12.3333 17.852C14.5663 17.852 16.6053 17.012 18.1493 15.634C18.2347 15.5603 18.3045 15.4703 18.3547 15.3693C18.4049 15.2683 18.4345 15.1583 18.4418 15.0458C18.4491 14.9333 18.4339 14.8204 18.3971 14.7138C18.3604 14.6072 18.3027 14.5089 18.2276 14.4248C18.1525 14.3407 18.0614 14.2723 17.9597 14.2237C17.8579 14.1752 17.7474 14.1473 17.6348 14.1419C17.5222 14.1364 17.4095 14.1534 17.3035 14.1919C17.1975 14.2304 17.1002 14.2895 17.0173 14.366C15.7298 15.5187 14.0615 16.1548 12.3333 16.152C10.5333 16.152 8.89333 15.477 7.64933 14.366Z" fill="currentColor"/>
    </mask>
    <g mask="url(#mask0_14_190)">
        <path d="M3.33333 7.51L2.36833 6.11L2.35833 6.117L3.33333 7.51ZM10.8333 2.335L9.87133 0.933999L9.86833 0.935999L10.8333 2.335ZM21.3333 7.51L22.3073 6.117L22.2983 6.111L21.3333 7.51ZM13.8333 2.335L14.7993 0.934999L14.7953 0.933999L13.8333 2.335ZM6.44933 14.434L7.71733 15.566L6.44933 14.434ZM7.64933 14.366L8.78233 13.098L7.64933 14.366ZM6.51733 15.634L5.38333 16.902L6.51633 15.634H6.51733ZM18.1493 15.634L19.2823 16.902L18.1493 15.634ZM18.2173 14.434L16.9493 15.566L18.2173 14.434ZM17.0173 14.366L15.8843 13.098L17.0173 14.366ZM4.29833 8.91L11.7983 3.735L9.86933 0.935999L2.36933 6.111L4.29933 8.909L4.29833 8.91ZM4.03333 9.35C4.03333 9.23 4.09633 9.051 4.30733 8.903L2.35933 6.117C1.32033 6.843 0.633331 8.022 0.633331 9.35H4.03333ZM4.03333 19.7V9.35H0.633331V19.7H4.03333ZM4.83333 20.3C4.60718 20.3038 4.38781 20.2228 4.21833 20.073C4.16295 20.0274 4.11783 19.9706 4.08595 19.9063C4.05407 19.842 4.03613 19.7717 4.03333 19.7H0.633331C0.633331 22.035 2.65533 23.7 4.83333 23.7V20.3ZM19.8333 20.3H4.83333V23.7H19.8333V20.3ZM20.6333 19.7C20.6333 19.81 20.5863 19.946 20.4483 20.073C20.2789 20.2228 20.0595 20.3038 19.8333 20.3V23.7C22.0113 23.7 24.0333 22.035 24.0333 19.7H20.6333ZM20.6333 9.35V19.7H24.0333V9.35H20.6333ZM20.3593 8.903C20.5703 9.051 20.6333 9.229 20.6333 9.35H24.0333C24.0333 8.022 23.3463 6.843 22.3073 6.117L20.3593 8.903ZM12.8673 3.734L20.3673 8.909L22.2983 6.111L14.7983 0.935999L12.8683 3.734H12.8673ZM11.7953 3.736C11.9556 3.63237 12.1425 3.57725 12.3333 3.57725C12.5242 3.57725 12.711 3.63237 12.8713 3.736L14.7953 0.933999C14.0686 0.441754 13.2111 0.178646 12.3333 0.178646C11.4556 0.178646 10.598 0.441754 9.87133 0.933999L11.7953 3.736ZM7.71733 15.566C7.5672 15.7341 7.35645 15.8357 7.13141 15.8485C6.90638 15.8612 6.68549 15.7841 6.51733 15.634L8.78233 13.098C8.27798 12.6476 7.6154 12.416 6.9403 12.4541C6.2652 12.4921 5.63285 12.7968 5.18233 13.301L7.71733 15.566ZM7.64933 14.366C7.99933 14.679 8.02933 15.216 7.71733 15.566L5.18133 13.301C4.73095 13.8054 4.49933 14.4679 4.5374 15.143C4.57547 15.8181 4.88011 16.4505 5.38433 16.901L7.64933 14.366ZM12.3333 16.152C10.5333 16.152 8.89333 15.477 7.64933 14.366L5.38433 16.902C7.2951 18.6113 9.76963 19.5549 12.3333 19.552V16.152ZM17.0173 14.366C15.7298 15.5187 14.0615 16.1548 12.3333 16.152V19.552C15.0003 19.552 17.4383 18.548 19.2823 16.902L17.0173 14.366ZM16.9493 15.566C16.7992 15.3978 16.7221 15.177 16.7348 14.9519C16.7476 14.7269 16.8492 14.5161 17.0173 14.366L19.2823 16.902C19.7866 16.4515 20.0912 15.8191 20.1293 15.144C20.1673 14.4689 19.9357 13.8064 19.4853 13.302L16.9493 15.566ZM18.1493 15.634C17.9812 15.7841 17.7603 15.8612 17.5353 15.8485C17.3102 15.8357 17.0995 15.7341 16.9493 15.566L19.4853 13.301C19.0348 12.7968 18.4025 12.4921 17.7274 12.4541C17.0523 12.416 16.3897 12.6476 15.8853 13.098L18.1493 15.634ZM12.3333 17.852C14.5663 17.852 16.6053 17.013 18.1493 15.634L15.8843 13.098C14.9085 13.9724 13.6436 14.4547 12.3333 14.452V17.852ZM6.51733 15.634C8.11632 17.065 10.1875 17.8548 12.3333 17.852V14.452C11.0231 14.4547 9.75817 13.9724 8.78233 13.098L6.51733 15.634Z" fill="currentColor"/>
    </g>
</svg>
