<svg width="111" height="32" viewBox="0 0 111 32" fill="none" xmlns="http://www.w3.org/2000/svg">
    <path d="M1.104 2.12H16.912V6.424H5.776L6.16 6.024V11.936L5.776 11.536H15.984V15.616H5.776L6.16 15.216V21.096L5.776 20.696H17.2V25H1.104V2.12ZM24.526 7.36V25H19.734V7.36H24.526ZM24.574 1.32V5.512H19.686V1.32H24.574ZM40.3298 7.36H45.1218V22.632C45.1218 23.9973 44.9111 25.2293 44.4898 26.328C44.0738 27.4267 43.4764 28.36 42.6978 29.128C41.9244 29.9013 40.9831 30.496 39.8738 30.912C38.7698 31.3333 37.5351 31.544 36.1698 31.544C35.3164 31.544 34.5084 31.464 33.7458 31.304C32.9884 31.1493 32.2898 30.9227 31.6498 30.624C31.0098 30.3307 30.4338 29.9707 29.9218 29.544C29.4098 29.1227 28.9751 28.6453 28.6178 28.112C28.2604 27.584 27.9858 27.008 27.7938 26.384C27.6018 25.76 27.5058 25.096 27.5058 24.392H32.2818C32.2818 24.904 32.3751 25.368 32.5618 25.784C32.7538 26.2053 33.0178 26.5653 33.3538 26.864C33.6898 27.168 34.0924 27.4027 34.5618 27.568C35.0311 27.7333 35.5431 27.816 36.0978 27.816C36.7538 27.816 37.3431 27.6987 37.8658 27.464C38.3884 27.2293 38.8311 26.888 39.1938 26.44C39.5564 25.9973 39.8364 25.4587 40.0338 24.824C40.2311 24.184 40.3298 23.464 40.3298 22.664V18.632L40.3538 18.616C40.1618 19.5013 39.8871 20.2907 39.5298 20.984C39.1724 21.6773 38.7378 22.264 38.2258 22.744C37.7138 23.2187 37.1324 23.5813 36.4818 23.832C35.8311 24.0773 35.1138 24.2 34.3298 24.2C33.6418 24.2 32.9884 24.104 32.3698 23.912C31.7564 23.7147 31.1884 23.4373 30.6658 23.08C30.1431 22.7173 29.6711 22.2773 29.2498 21.76C28.8284 21.2427 28.4711 20.6613 28.1778 20.016C27.8844 19.3707 27.6578 18.6667 27.4978 17.904C27.3431 17.136 27.2658 16.3253 27.2658 15.472C27.2658 14.6187 27.3431 13.8133 27.4978 13.056C27.6578 12.2987 27.8844 11.6027 28.1778 10.968C28.4711 10.328 28.8284 9.75733 29.2498 9.256C29.6711 8.74933 30.1431 8.32 30.6658 7.968C31.1884 7.616 31.7564 7.34667 32.3698 7.16C32.9884 6.97333 33.6444 6.88 34.3378 6.88C35.1164 6.88 35.8311 7 36.4818 7.24C37.1324 7.48 37.7138 7.832 38.2258 8.296C38.7378 8.76 39.1724 9.33333 39.5298 10.016C39.8871 10.6933 40.1618 11.472 40.3538 12.352L40.3298 12.328V7.36ZM40.3298 15.472C40.3298 14.9867 40.2871 14.5387 40.2018 14.128C40.1218 13.7173 39.9991 13.3467 39.8338 13.016C39.6738 12.6853 39.4738 12.3947 39.2338 12.144C38.9991 11.8933 38.7244 11.6827 38.4098 11.512C38.1004 11.3413 37.7538 11.216 37.3698 11.136C36.9858 11.0507 36.5698 11.008 36.1218 11.008C35.4658 11.008 34.8871 11.0987 34.3858 11.28C33.8844 11.4613 33.4631 11.7387 33.1218 12.112C32.7804 12.48 32.5218 12.944 32.3458 13.504C32.1751 14.064 32.0898 14.72 32.0898 15.472C32.0898 16.2293 32.1751 16.8933 32.3458 17.464C32.5218 18.0347 32.7804 18.5147 33.1218 18.904C33.4631 19.288 33.8844 19.5787 34.3858 19.776C34.8871 19.9733 35.4658 20.072 36.1218 20.072C36.5698 20.072 36.9858 20.0267 37.3698 19.936C37.7538 19.8453 38.1004 19.712 38.4098 19.536C38.7191 19.3547 38.9938 19.1333 39.2338 18.872C39.4738 18.6107 39.6738 18.3093 39.8338 17.968C39.9991 17.6267 40.1218 17.248 40.2018 16.832C40.2871 16.416 40.3298 15.9627 40.3298 15.472ZM52.3308 16.496C52.3308 17.296 52.4321 18.016 52.6348 18.656C52.8428 19.2907 53.1388 19.8293 53.5228 20.272C53.9068 20.7147 54.3734 21.056 54.9228 21.296C55.4774 21.5307 56.1041 21.648 56.8028 21.648C57.2668 21.648 57.6934 21.5947 58.0828 21.488C58.4774 21.376 58.8321 21.2107 59.1468 20.992C59.4668 20.768 59.7494 20.4933 59.9948 20.168C60.2454 19.8373 60.4561 19.456 60.6268 19.024H65.1308C64.8908 20.0267 64.5148 20.928 64.0028 21.728C63.4908 22.528 62.8694 23.2053 62.1388 23.76C61.4134 24.3147 60.5868 24.7387 59.6588 25.032C58.7361 25.3307 57.7388 25.48 56.6668 25.48C55.3334 25.48 54.1201 25.256 53.0268 24.808C51.9334 24.36 50.9948 23.728 50.2108 22.912C49.4321 22.0907 48.8268 21.1093 48.3948 19.968C47.9681 18.8213 47.7548 17.552 47.7548 16.16C47.7548 14.7787 47.9654 13.5173 48.3868 12.376C48.8134 11.2347 49.4134 10.2587 50.1868 9.448C50.9601 8.632 51.8881 8 52.9708 7.552C54.0534 7.104 55.2534 6.88 56.5708 6.88C57.8721 6.88 59.0534 7.10133 60.1148 7.544C61.1814 7.98133 62.0908 8.60533 62.8428 9.416C63.6001 10.2213 64.1841 11.1947 64.5948 12.336C65.0054 13.472 65.2108 14.7387 65.2108 16.136C65.2108 16.3493 65.2054 16.5653 65.1948 16.784C65.1841 16.9973 65.1681 17.216 65.1468 17.44H50.7228V14.48H62.6188L60.6748 17.392C60.6961 17.184 60.7094 16.9787 60.7148 16.776C60.7254 16.568 60.7308 16.3653 60.7308 16.168C60.7308 15.2613 60.6401 14.4667 60.4588 13.784C60.2828 13.096 60.0214 12.52 59.6748 12.056C59.3281 11.592 58.8961 11.2427 58.3788 11.008C57.8668 10.768 57.2721 10.648 56.5948 10.648C55.9228 10.648 55.3228 10.7653 54.7948 11C54.2668 11.2347 53.8188 11.576 53.4508 12.024C53.0881 12.4667 52.8108 13.0107 52.6188 13.656C52.4268 14.3013 52.3308 15.032 52.3308 15.848V16.496ZM72.656 16.944V25H67.864V7.36H72.656V13.576L72.64 13.6C72.7893 12.64 73.0187 11.776 73.328 11.008C73.6373 10.2347 74.0347 9.57867 74.52 9.04C75.0053 8.50133 75.5813 8.088 76.248 7.8C76.9147 7.50667 77.6827 7.36 78.552 7.36H79.6V11.872H77.752C76.7707 11.872 75.952 11.9733 75.296 12.176C74.6453 12.3787 74.1227 12.688 73.728 13.104C73.3387 13.52 73.0613 14.048 72.896 14.688C72.736 15.3227 72.656 16.0747 72.656 16.944Z" fill="#24FFBC"/>
    <path d="M103.285 28L95.7013 19.296L88.6293 28H82.0373L92.5333 15.52L82.7093 4H89.3013L96.0533 12.224L103.029 4H109.589L99.0613 15.808L109.909 28H103.285Z" fill="#F5F5F5"/>
</svg>
