<svg width="13" height="14" viewBox="0 0 13 14" fill="none" xmlns="http://www.w3.org/2000/svg">
    <path fill-rule="evenodd" clip-rule="evenodd" d="M2.563 13.605L11.919 8.20301C12.919 7.62601 12.919 6.18301 11.919 5.60501L2.563 0.203007C2.3349 0.0713133 2.07615 0.00200251 1.81276 0.0020447C1.54938 0.00208688 1.29064 0.0714806 1.06259 0.203247C0.83453 0.335013 0.645189 0.524507 0.513605 0.752669C0.382021 0.980832 0.312835 1.23962 0.313004 1.50301V12.306C0.312835 12.5694 0.382021 12.8282 0.513605 13.0563C0.645189 13.2845 0.83453 13.474 1.06259 13.6058C1.29064 13.7375 1.54938 13.8069 1.81276 13.807C2.07615 13.807 2.3349 13.7377 2.563 13.606V13.605ZM4.51 7.38701L0.313004 8.51201V5.29701L4.51 6.42001C5.004 6.55301 5.004 7.25401 4.51 7.38601V7.38701Z" fill="#24FFBC"/>
</svg>
